<svg width="375" height="166" fill="none" xmlns="http://www.w3.org/2000/svg"><path opacity=".2" d="M733.883-169.034c-29.358-12.529-56.326-27.021-89.793-32.946-23.902-4.232-48.492-3.931-73.305 2.008-46.263 11.074-92.133 29.036-131.242 54.072-39.963 25.582-82.602 49.883-116.156 81.534-31.197 29.427-58.973 62.125-91.945 90.205C176.197 72.887 100.118 97.36 28.17 116.371c-38.064 10.058-76.322 19.913-114.601 29.103-24.022 5.767-49.178 9.424-72.28 18.051" stroke="#A596FF" stroke-width="4.017" stroke-linecap="round"/><path opacity=".2" d="M733.05-214.12c-31.72-13.528-60.857-29.176-97.015-35.571-25.826-4.567-52.395-4.24-79.205 2.178-49.987 11.966-99.551 31.372-141.81 58.416-43.183 27.635-89.256 53.886-125.515 88.074-33.711 31.786-63.727 67.105-99.356 97.436-59.696 50.82-141.9 77.261-219.641 97.803-41.128 10.868-82.466 21.516-123.827 31.446-25.955 6.232-53.137 10.185-78.099 19.505" stroke="#A596FF" stroke-width="4.017" stroke-linecap="round"/></svg>