<svg width="33" height="113" fill="none" xmlns="http://www.w3.org/2000/svg"><path d="M14.366 112.524a.868.868 0 001.019-1.404l-1.019 1.404zM1.351 84.712l-.857-.136.857.136zM22.908 64.66l-.26.827.26-.827zm6.495 10.197l-.842-.21.842.21zm-8.985 5.686l-.03-.867.03.867zM5.219 52.698l-.85-.175.85.175zm21.269-17.735l-.22.84.22-.84zm5.114 7.511l-.866-.055.866.055zM8.625 17.304l.802.332-.802-.332zM27.141 1.653l.743.447A.868.868 0 0027.12.786l.02.867zm-4.868 6.406a.867.867 0 101.486.895l-1.486-.895zM18.723.99a.867.867 0 10.041 1.734L18.722.988zm-3.847 110.833l.51-.702-.002-.001-.007-.005-.03-.022-.124-.094a24.656 24.656 0 01-.486-.381c-.42-.337-1.02-.839-1.735-1.49a42.483 42.483 0 01-5.117-5.567c-3.621-4.75-6.848-11.29-5.677-18.713l-1.714-.27c-1.277 8.094 2.258 15.11 6.011 20.035a44.108 44.108 0 005.329 5.797 39.069 39.069 0 001.816 1.56c.223.179.399.316.521.409l.141.106.039.028.01.008.003.002.001.001s.001.001.51-.701zM2.208 84.847C3.123 79.049 6.054 73.46 9.886 69.7c3.842-3.768 8.44-5.574 12.762-4.213l.52-1.655c-5.166-1.627-10.404.615-14.497 4.63C4.57 72.487 1.466 78.418.494 84.577l1.714.27zm20.44-19.359c1.267.399 3.067 1.56 4.391 3.233 1.311 1.656 2.075 3.707 1.522 5.928l1.684.418c.72-2.897-.315-5.489-1.846-7.423-1.517-1.918-3.6-3.298-5.23-3.81l-.521 1.654zm5.913 9.16c-.522 2.1-1.809 3.308-3.337 4.027-1.564.736-3.373.953-4.835 1.002l.058 1.734c1.55-.052 3.637-.282 5.515-1.166 1.913-.9 3.613-2.485 4.283-5.178l-1.684-.418zm-8.172 5.029c-5.829.196-9.998-3.373-12.448-8.644-2.46-5.288-3.106-12.163-1.872-18.16l-1.7-.35c-1.3 6.323-.633 13.581 1.999 19.242 2.64 5.678 7.338 9.873 14.079 9.646l-.058-1.734zM6.069 52.873c1.059-5.143 3.68-10.09 7.267-13.403 3.572-3.3 8.05-4.944 12.932-3.668l.439-1.678c-5.58-1.46-10.646.467-14.548 4.071-3.887 3.59-6.668 8.879-7.79 14.328l1.7.35zm20.2-17.07c1.53.4 2.684 1.173 3.435 2.245.752 1.074 1.15 2.524 1.032 4.37l1.732.112c.138-2.157-.322-4.019-1.343-5.477-1.022-1.46-2.554-2.442-4.418-2.93l-.439 1.68zm4.468 6.616c-.109 1.689-.834 2.848-1.945 3.666-1.147.843-2.75 1.351-4.614 1.585l.216 1.721c2.016-.252 3.946-.821 5.425-1.909 1.514-1.113 2.507-2.738 2.649-4.952l-1.732-.111zm-6.559 5.25c-6.244.784-11.06-3.74-13.796-10.204-2.73-6.449-3.188-14.436-.955-19.83l-1.603-.663c-2.453 5.926-1.902 14.407.96 21.17 2.856 6.746 8.213 12.177 15.61 11.25l-.216-1.722zM9.427 17.637c1.733-4.187 6.167-7.978 10.319-10.77a63.33 63.33 0 017.132-4.126 36.13 36.13 0 01.615-.294l.006-.003.002-.001-.36-.79-.36-.788h-.001l-.003.001-.01.005a15.776 15.776 0 00-.164.077 57.597 57.597 0 00-2.247 1.137 65.06 65.06 0 00-5.578 3.343c-4.186 2.814-9.01 6.848-10.954 11.545l1.603.664zm16.97-16.43L22.273 8.06l1.486.895L27.884 2.1l-1.486-.895zm.723-.42l-8.398.202.042 1.735 8.398-.203L27.12.786z" fill="#6C5FBC"/></svg>