<svg width="169" height="61" fill="none" xmlns="http://www.w3.org/2000/svg"><path d="M168.509 6.145a1.326 1.326 0 00-2.52-.82l2.52.82zM134.21 38.14l.206 1.31-.206-1.31zm-39.278-21.9l1.325-.01-1.325.01zm11.766-14.234l.091 1.322-.091-1.322zm12.488 10.384l-1.246.45 1.246-.45zm-33.32 35.183l.145 1.317-.146-1.317zm-35.778-22.57l1.323-.075-1.323.075zm8.51-10.965l.327 1.284-.326-1.284zm-25.774 45.23l.105-1.321-.105 1.32zM1.371 39.717l.3-1.29a1.325 1.325 0 00-1.55 1.73l1.25-.44zm11.6 4.063a1.325 1.325 0 10.601-2.58l-.6 2.58zm-8.606 8.485a1.325 1.325 0 002.5-.877l-2.5.877zm162.884-46.53l-1.26-.41-.001.001-.004.012-.018.055-.078.225c-.07.2-.178.5-.325.884a56.568 56.568 0 01-1.35 3.223c-1.221 2.693-3.091 6.32-5.683 10.054-5.201 7.497-13.186 15.262-24.526 17.051l.412 2.618c12.365-1.95 20.9-10.387 26.291-18.158 2.705-3.898 4.65-7.672 5.92-10.47.635-1.4 1.102-2.56 1.413-3.374a40.08 40.08 0 00.436-1.204l.023-.069.007-.019.002-.006v-.002l-1.259-.411zM134.004 36.83c-8.857 1.398-18.358-.234-25.623-4.036-7.283-3.811-12.07-9.644-12.124-16.565l-2.65.02c.065 8.275 5.786 14.833 13.546 18.893 7.778 4.07 17.856 5.79 27.263 4.306l-.412-2.618zm-37.747-20.6c-.016-2.029.824-5.192 2.632-7.902 1.792-2.685 4.414-4.759 7.9-5l-.183-2.644c-4.55.315-7.83 3.039-9.92 6.173-2.075 3.108-3.1 6.784-3.08 9.394l2.65-.021zm10.532-12.902c3.297-.228 5.657 1.073 7.421 2.957 1.804 1.926 2.971 4.454 3.73 6.555l2.492-.9c-.804-2.228-2.12-5.152-4.288-7.467-2.207-2.356-5.309-4.082-9.538-3.789l.183 2.644zm11.151 9.512c3.026 8.379-.201 16.116-6.708 22.156-6.529 6.06-16.217 10.234-25.512 11.26l.29 2.634c9.8-1.082 20.036-5.465 27.025-11.952 7.011-6.507 10.897-15.308 7.397-24.998l-2.492.9zM85.72 46.255c-7.972.88-16.396-.604-22.897-4.258-6.474-3.639-10.97-9.373-11.411-17.07l-2.646.152c.504 8.796 5.686 15.253 12.759 19.228 7.046 3.96 16.038 5.515 24.486 4.582l-.291-2.634zM51.412 24.928c-.139-2.414.442-4.455 1.647-6.05 1.207-1.597 3.128-2.86 5.867-3.556l-.653-2.568c-3.2.813-5.689 2.357-7.328 4.527-1.642 2.173-2.347 4.86-2.179 7.798l2.646-.151zm7.514-9.606c2.505-.637 4.532-.128 6.242 1.103 1.765 1.27 3.257 3.36 4.474 5.959l2.4-1.123c-1.315-2.81-3.05-5.349-5.326-6.987-2.33-1.676-5.159-2.355-8.443-1.52l.653 2.568zm10.716 7.062c4.074 8.707-.235 17.833-8.343 24.85-8.088 6.998-19.48 11.42-28.369 10.713l-.21 2.641c9.765.778 21.831-4.011 30.313-11.351 8.463-7.323 13.835-17.662 9.009-27.976l-2.4 1.123zM32.93 57.947c-6.9-.55-14.494-5.21-20.503-9.933a96.756 96.756 0 01-9.352-8.424 55.273 55.273 0 01-.683-.719l-.034-.036a7.96 7.96 0 00-.007-.009l-.002-.001-.978.894-.977.895h.001c0 .002.002.003.003.004l.01.011a16.19 16.19 0 00.19.204c.13.14.323.342.572.6a99.387 99.387 0 009.62 8.666c6.057 4.76 14.189 9.873 21.93 10.49l.21-2.642zM1.07 41.009l11.901 2.772.601-2.58-11.9-2.773-.601 2.581zm-.95-.852l4.245 12.109 2.5-.877-4.243-12.108-2.501.876z" fill="#6C5FBC"/></svg>