<svg width="36" height="27" fill="none" xmlns="http://www.w3.org/2000/svg"><path fill-rule="evenodd" clip-rule="evenodd" d="M22.489 26.75c-1.85-3.577-2.775-7.462-2.775-11.656 0-4.255 1.125-7.77 3.376-10.546S28.841.385 33.59.385v5.828c-1.665 0-2.883.37-3.654 1.11-.77.74-1.156 2.159-1.156 4.256v.925h6.753V26.75H22.489zm-19.15 0C1.49 23.175.565 19.289.565 15.095c0-4.255 1.126-7.77 3.377-10.546C6.192 1.773 9.692.385 14.441.385v5.828c-1.665 0-2.883.37-3.654 1.11-.771.74-1.156 2.159-1.156 4.256v.925h6.753V26.75H3.34z" fill="#DADADA"/></svg>