<svg width="132" height="241" fill="none" xmlns="http://www.w3.org/2000/svg"><path opacity=".2" d="M159.751 2c-14.432 9.057-30.769 17.58-43.858 28.335-12.808 10.524-25.054 24.07-34.63 36.681-17.648 23.242-21.568 45.288-22.817 69.86-2.061 40.552 7.922 76.494 24.91 110.853 11.247 22.746 23.434 44.728 37.193 66.113 4.201 6.529 7.817 14.592 15.882 17.99" stroke="#A596FF" stroke-width="3.215" stroke-linecap="round"/><path opacity=".2" d="M198.569 2.814c-14.864 9.33-31.69 18.108-45.171 29.186-13.191 10.84-25.802 24.791-35.665 37.782-18.174 23.94-22.21 46.651-23.493 71.964-2.12 41.773 8.167 78.8 25.668 114.196 11.586 23.433 24.141 46.079 38.315 68.109 4.327 6.727 8.053 15.032 16.359 18.534" stroke="#A596FF" stroke-width="3.215" stroke-linecap="round"/></svg>