<svg width="33" height="113" viewBox="0 0 33 113" fill="none" xmlns="http://www.w3.org/2000/svg">
<path d="M14.3661 112.524C14.7538 112.805 15.2962 112.719 15.5776 112.331C15.859 111.943 15.7727 111.401 15.385 111.12L14.3661 112.524ZM1.35105 84.7117L0.494224 84.5765L1.35105 84.7117ZM22.9084 64.6606L22.6479 65.488L22.9084 64.6606ZM29.403 74.8581L28.5613 74.6486L29.403 74.8581ZM20.4178 80.5439L20.3886 79.6769L20.4178 80.5439ZM5.21942 52.6983L4.3698 52.5235L5.21942 52.6983ZM26.4876 34.9631L26.2681 35.8023L26.4876 34.9631ZM31.6022 42.4744L30.7365 42.4189L31.6022 42.4744ZM8.62527 17.3042L9.42676 17.6359L8.62527 17.3042ZM27.1409 1.65274L27.8841 2.10004C28.0473 1.82889 28.0499 1.49039 27.8909 1.21679C27.7318 0.94319 27.4364 0.777919 27.12 0.785562L27.1409 1.65274ZM22.2728 8.05919C22.0257 8.46966 22.1582 9.00266 22.5687 9.2497C22.9791 9.49673 23.5121 9.36425 23.7592 8.95379L22.2728 8.05919ZM18.7224 0.988392C18.2435 0.99996 17.8646 1.39758 17.8762 1.87651C17.8877 2.35544 18.2854 2.73431 18.7643 2.72274L18.7224 0.988392ZM14.8756 111.822C15.385 111.12 15.3852 111.12 15.3853 111.12C15.3853 111.12 15.3853 111.12 15.3853 111.12C15.3851 111.12 15.3847 111.119 15.3841 111.119C15.3828 111.118 15.3805 111.116 15.3774 111.114C15.371 111.109 15.3609 111.102 15.3472 111.092C15.3198 111.071 15.2778 111.04 15.2225 110.998C15.1117 110.913 14.9473 110.786 14.7375 110.617C14.3177 110.28 13.7171 109.778 13.0021 109.127C11.5709 107.823 9.68916 105.927 7.885 103.56C4.264 98.8096 1.03657 92.2708 2.20789 84.8469L0.494224 84.5765C-0.782952 92.6714 2.75187 99.6876 6.50523 104.612C8.38826 107.083 10.3468 109.055 11.8339 110.409C12.5782 111.087 13.2063 111.612 13.6505 111.969C13.8727 112.148 14.049 112.285 14.171 112.378C14.2321 112.424 14.2795 112.46 14.3124 112.484C14.3288 112.496 14.3416 112.506 14.3506 112.512C14.3551 112.516 14.3586 112.518 14.3612 112.52C14.3625 112.521 14.3636 112.522 14.3644 112.522C14.3648 112.523 14.3652 112.523 14.3654 112.523C14.3658 112.523 14.3661 112.524 14.8756 111.822ZM2.20789 84.8469C3.12262 79.0492 6.05414 73.4602 9.88617 69.7013C13.728 65.9328 18.3256 64.1271 22.6479 65.488L23.1689 63.8332C18.0021 62.2064 12.7643 64.4479 8.67131 68.4628C4.56855 72.4873 1.46594 78.4177 0.494224 84.5765L2.20789 84.8469ZM22.6479 65.488C23.9146 65.8868 25.7154 67.0476 27.039 68.7205C28.3501 70.3775 29.1136 72.4285 28.5613 74.6486L30.2448 75.0675C30.9657 72.1701 29.93 69.5784 28.3995 67.644C26.8816 65.7256 24.7984 64.3463 23.1689 63.8332L22.6479 65.488ZM28.5613 74.6486C28.0389 76.748 26.7523 77.9558 25.2235 78.6752C23.6605 79.4107 21.8508 79.6277 20.3886 79.6769L20.447 81.4108C21.9969 81.3586 24.0837 81.1289 25.9622 80.2449C27.8749 79.3449 29.5748 77.7605 30.2448 75.0675L28.5613 74.6486ZM20.3886 79.6769C14.5601 79.8732 10.3913 76.304 7.94083 71.0335C5.4819 65.7448 4.83483 58.8695 6.06903 52.8732L4.3698 52.5235C3.06853 58.8456 3.73593 66.1045 6.3677 71.7649C9.0079 77.4434 13.706 81.6378 20.447 81.4108L20.3886 79.6769ZM6.06903 52.8732C7.12759 47.7303 9.74976 42.7826 13.3361 39.4697C16.9077 36.1704 21.3855 34.5255 26.2681 35.8023L26.707 34.1239C21.1269 32.6646 16.0607 34.591 12.159 38.1953C8.27203 41.7859 5.49149 47.0738 4.3698 52.5235L6.06903 52.8732ZM26.2681 35.8023C27.7995 36.2028 28.9535 36.9756 29.7038 38.0475C30.4555 39.1216 30.8549 40.572 30.7365 42.4189L32.4678 42.5299C32.6062 40.3725 32.146 38.5113 31.1251 37.0527C30.1028 35.5921 28.5712 34.6114 26.707 34.1239L26.2681 35.8023ZM30.7365 42.4189C30.6282 44.1077 29.903 45.2672 28.7915 46.0846C27.645 46.9277 26.0428 47.436 24.1783 47.6698L24.3941 49.3912C26.4096 49.1385 28.3403 48.5699 29.8193 47.4822C31.3332 46.3689 32.3259 44.7436 32.4678 42.5299L30.7365 42.4189ZM24.1783 47.6698C17.9339 48.4527 13.1179 43.9294 10.3821 37.4652C7.65274 31.0165 7.19429 23.0295 9.42676 17.6359L7.82378 16.9724C5.3712 22.8978 5.9224 31.3791 8.78439 38.1414C11.6398 44.8882 16.9968 50.3186 24.3941 49.3912L24.1783 47.6698ZM9.42676 17.6359C11.1597 13.4492 15.5936 9.65786 19.746 6.86686C21.8002 5.48613 23.7434 4.37756 25.1735 3.61418C25.8879 3.23278 26.473 2.93828 26.8779 2.73977C27.0804 2.64053 27.2378 2.56533 27.3437 2.51531C27.3967 2.4903 27.4368 2.47159 27.4633 2.45932C27.4765 2.45318 27.4863 2.44865 27.4926 2.44575C27.4958 2.4443 27.498 2.44327 27.4994 2.44263C27.5001 2.44232 27.5006 2.4421 27.5008 2.44199C27.5009 2.44194 27.501 2.44193 27.501 2.4419C27.501 2.44192 27.5009 2.44196 27.1409 1.65274C26.781 0.863518 26.7808 0.863616 26.7805 0.863736C26.7803 0.863809 26.78 0.863959 26.7797 0.864111C26.779 0.864408 26.7781 0.864816 26.777 0.86532C26.7748 0.866334 26.7717 0.867769 26.7677 0.869604C26.7597 0.873281 26.7482 0.878592 26.7332 0.885534C26.7033 0.899411 26.6597 0.919783 26.6031 0.946512C26.4899 0.999955 26.3248 1.07883 26.1144 1.18198C25.6935 1.38827 25.0906 1.69187 24.3565 2.08373C22.8894 2.86687 20.8932 4.0054 18.7782 5.42702C14.592 8.24073 9.76806 12.2751 7.82378 16.9724L9.42676 17.6359ZM26.3977 1.20544L22.2728 8.05919L23.7592 8.95379L27.8841 2.10004L26.3977 1.20544ZM27.12 0.785562L18.7224 0.988392L18.7643 2.72274L27.1619 2.51992L27.12 0.785562Z" fill="#6C5FBC"/>
</svg>
