<svg width="169" height="61" viewBox="0 0 169 61" fill="none" xmlns="http://www.w3.org/2000/svg">
<path d="M168.509 6.14524C168.735 5.44942 168.355 4.70168 167.659 4.47511C166.963 4.24853 166.215 4.62893 165.989 5.32475L168.509 6.14524ZM134.21 38.1393L134.416 39.4481L134.416 39.4481L134.21 38.1393ZM94.9317 16.2392L96.2566 16.2287L96.2566 16.2287L94.9317 16.2392ZM106.698 2.00495L106.789 3.32679L106.789 3.32679L106.698 2.00495ZM119.186 12.3894L117.94 12.8395L119.186 12.3894ZM85.8654 47.5723L86.0108 48.8893L86.0108 48.8893L85.8654 47.5723ZM50.0889 25.0035L51.4117 24.9278L51.4117 24.9278L50.0889 25.0035ZM58.5998 14.038L58.9263 15.3222L58.5998 14.038ZM32.8251 59.2674L32.9303 57.9466L32.9303 57.9466L32.8251 59.2674ZM1.37135 39.7189L1.67191 38.4284C1.2011 38.3187 0.707938 38.4742 0.385111 38.834C0.0622849 39.1938 -0.0389638 39.7009 0.120926 40.1571L1.37135 39.7189ZM12.9713 43.781C13.684 43.947 14.3963 43.5038 14.5623 42.7911C14.7283 42.0784 14.2851 41.3661 13.5724 41.2001L12.9713 43.781ZM4.36485 52.266C4.60688 52.9566 5.36293 53.3202 6.05352 53.0782C6.74411 52.8362 7.10774 52.0801 6.8657 51.3895L4.36485 52.266ZM167.249 5.735C165.989 5.32475 165.989 5.32442 165.989 5.32421C165.989 5.32428 165.989 5.32417 165.989 5.32431C165.989 5.3246 165.989 5.32532 165.988 5.32646C165.988 5.32876 165.986 5.33277 165.984 5.33848C165.981 5.34989 165.974 5.36806 165.966 5.39279C165.949 5.44226 165.923 5.51796 165.888 5.61827C165.818 5.8189 165.71 6.11784 165.563 6.50209C165.27 7.27077 164.824 8.37969 164.213 9.72495C162.992 12.4182 161.122 16.0443 158.53 19.7794C153.329 27.276 145.344 35.0415 134.004 36.8304L134.416 39.4481C146.781 37.4974 155.316 29.0607 160.707 21.2901C163.412 17.3916 165.357 13.6179 166.627 10.8196C167.262 9.41912 167.729 8.2594 168.04 7.44588C168.195 7.03902 168.31 6.71847 168.388 6.49738C168.427 6.38683 168.456 6.30112 168.476 6.24189C168.486 6.21227 168.494 6.18927 168.499 6.1731C168.502 6.16501 168.504 6.15863 168.506 6.15398C168.507 6.15165 168.507 6.14976 168.508 6.1483C168.508 6.14757 168.508 6.14681 168.508 6.14644C168.508 6.14579 168.509 6.14524 167.249 5.735ZM134.004 36.8304C125.147 38.2275 115.646 36.5955 108.381 32.7941C101.098 28.9829 96.3114 23.1503 96.2566 16.2287L93.6067 16.2497C93.6722 24.5238 99.3931 31.0818 107.153 35.1421C114.931 39.212 125.009 40.9322 134.416 39.4481L134.004 36.8304ZM96.2566 16.2287C96.2406 14.2002 97.0806 11.0373 98.8894 8.32692C100.681 5.64226 103.303 3.56809 106.789 3.32679L106.606 0.683114C102.056 0.998026 98.7767 3.72199 96.6852 6.85591C94.6109 9.96411 93.5861 13.6403 93.6067 16.2497L96.2566 16.2287ZM106.789 3.32679C110.086 3.09861 112.446 4.40049 114.21 6.284C116.014 8.20967 117.181 10.7376 117.94 12.8395L120.432 11.9393C119.628 9.71127 118.312 6.78656 116.144 4.47227C113.937 2.11582 110.835 0.39042 106.606 0.683114L106.789 3.32679ZM117.94 12.8395C120.966 21.2178 117.739 28.9549 111.232 34.9948C104.703 41.0555 95.0149 45.2291 85.72 46.2553L86.0108 48.8893C95.8108 47.8074 106.046 43.4237 113.035 36.937C120.046 30.4296 123.932 21.6293 120.432 11.9393L117.94 12.8395ZM85.72 46.2553C77.748 47.1355 69.3243 45.6514 62.823 41.9973C56.3486 38.3582 51.8522 32.6242 51.4117 24.9278L48.766 25.0792C49.2695 33.875 54.4516 40.3319 61.5246 44.3074C68.5707 48.2677 77.5633 49.822 86.0108 48.8893L85.72 46.2553ZM51.4117 24.9278C51.2735 22.5139 51.8539 20.4732 53.059 18.8788C54.2664 17.2812 56.1865 16.0186 58.9263 15.3222L58.2734 12.7539C55.073 13.5674 52.5845 15.1114 50.9448 17.281C49.3029 19.4536 48.5978 22.1407 48.766 25.0792L51.4117 24.9278ZM58.9263 15.3222C61.4315 14.6854 63.4578 15.1941 65.1684 16.4251C66.9329 17.6947 68.425 19.7842 69.6416 22.384L72.0418 21.2608C70.7267 18.4505 68.9925 15.912 66.7162 14.2741C64.3862 12.5975 61.5573 11.9191 58.2734 12.7539L58.9263 15.3222ZM69.6416 22.384C73.7159 31.0908 69.4071 40.2171 61.2992 47.2331C53.2107 54.2323 41.8187 58.6546 32.9303 57.9466L32.7199 60.5882C42.4847 61.3661 54.5515 56.5765 63.0332 49.237C71.4955 41.9143 76.8684 31.5752 72.0418 21.2608L69.6416 22.384ZM32.9303 57.9466C26.0308 57.397 18.4357 52.7362 12.4267 48.014C9.45407 45.6779 6.92911 43.3751 5.14719 41.6558C4.25689 40.7968 3.55377 40.0851 3.07482 39.5899C2.83538 39.3423 2.65209 39.1489 2.52956 39.0185C2.4683 38.9533 2.42224 38.9038 2.39197 38.8711C2.37683 38.8548 2.36563 38.8426 2.35846 38.8348C2.35487 38.8309 2.35229 38.8281 2.35072 38.8264C2.34994 38.8255 2.34941 38.825 2.34913 38.8247C2.34899 38.8245 2.34898 38.8245 2.34891 38.8244C2.34896 38.8245 2.34907 38.8246 1.37135 39.7189C0.393635 40.6131 0.393875 40.6134 0.394179 40.6137C0.394366 40.6139 0.394735 40.6143 0.395108 40.6147C0.395856 40.6155 0.39686 40.6166 0.398119 40.618C0.400637 40.6208 0.404176 40.6246 0.408726 40.6295C0.417826 40.6394 0.430972 40.6537 0.448093 40.6722C0.482332 40.7091 0.532471 40.763 0.597929 40.8327C0.728838 40.9721 0.921062 41.1748 1.16996 41.4321C1.66767 41.9468 2.39246 42.6803 3.30716 43.5628C5.13523 45.3267 7.72861 47.6923 10.7893 50.0976C16.8471 54.8582 24.9789 59.9716 32.7199 60.5882L32.9303 57.9466ZM1.07079 41.0093L12.9713 43.781L13.5724 41.2001L1.67191 38.4284L1.07079 41.0093ZM0.120926 40.1571L4.36485 52.266L6.8657 51.3895L2.62178 39.2806L0.120926 40.1571Z" fill="#6C5FBC"/>
</svg>
