<svg width="132" height="241" viewBox="0 0 132 241" fill="none" xmlns="http://www.w3.org/2000/svg">
<path opacity="0.2" d="M159.751 1.99944C145.319 11.0571 128.982 19.5804 115.893 30.3352C103.085 40.8589 90.8392 54.4042 81.2626 67.0162C63.6149 90.2577 59.6952 112.304 58.4462 136.876C56.3848 177.428 66.3682 213.37 83.3567 247.729C94.6032 270.475 106.79 292.457 120.549 313.842C124.75 320.371 128.366 328.434 136.431 331.832" stroke="#A596FF" stroke-width="3.21454" stroke-linecap="round"/>
<path opacity="0.2" d="M198.569 2.81408C183.705 12.1433 166.879 20.9219 153.398 31.9995C140.207 42.8391 127.596 56.7913 117.733 69.7825C99.5586 93.7226 95.5236 116.433 94.2396 141.746C92.1205 183.519 102.407 220.546 119.908 255.942C131.494 279.375 144.049 302.021 158.223 324.051C162.55 330.778 166.276 339.083 174.582 342.585" stroke="#A596FF" stroke-width="3.21454" stroke-linecap="round"/>
</svg>
