<svg width="36" height="27" viewBox="0 0 36 27" fill="none" xmlns="http://www.w3.org/2000/svg">
<path fill-rule="evenodd" clip-rule="evenodd" d="M22.489 26.7504C20.6388 23.1733 19.7137 19.2878 19.7137 15.094C19.7137 10.8385 20.8392 7.32309 23.0903 4.54776C25.3414 1.77243 28.8414 0.384766 33.5903 0.384766V6.21296C31.9251 6.21296 30.707 6.583 29.9361 7.32309C29.1652 8.06318 28.7797 9.48168 28.7797 11.5786V12.5037H35.533V26.7504H22.489ZM3.33977 26.7506C1.48956 23.1735 0.564453 19.2881 0.564453 15.0942C0.564453 10.8387 1.69 7.32332 3.94109 4.54799C6.19219 1.77267 9.69218 0.384999 14.4411 0.384999V6.21319C12.7759 6.21319 11.5578 6.58323 10.7869 7.32332C10.016 8.06341 9.63051 9.48191 9.63051 11.5788V12.5039H16.3838V26.7506H3.33977Z" fill="#DADADA"/>
</svg>
