<svg width="17" height="16" fill="none" xmlns="http://www.w3.org/2000/svg"><path fill-rule="evenodd" clip-rule="evenodd" d="M8.13 0c1.06.038 2.159.038 3.22.076.946.038 1.817.19 2.65.681 1.061.644 1.705 1.591 1.932 2.803.114.72.152 1.477.19 2.197.038 1.59 0 3.181 0 4.772 0 .833-.038 1.667-.303 2.462-.53 1.553-1.629 2.5-3.22 2.803-.72.151-1.477.151-2.197.19-1.59.037-3.143 0-4.734 0-.833 0-1.666-.039-2.462-.304-1.553-.53-2.5-1.628-2.803-3.22-.151-.719-.151-1.476-.189-2.196-.038-1.59 0-3.181 0-4.772 0-.833.038-1.667.303-2.462.53-1.553 1.629-2.5 3.22-2.803.72-.151 1.477-.151 2.196-.19C6.653 0 7.373 0 8.13 0zm6.552 7.84c-.038 0 0 0 0 0-.038-.643-.038-1.25-.038-1.893 0-.606-.037-1.212-.113-1.818-.152-1.364-.947-2.273-2.273-2.538-.681-.151-1.439-.151-2.12-.151a72.276 72.276 0 00-4.053 0c-.682 0-1.364.038-2.008.151-1.136.19-1.931.834-2.272 1.97-.114.379-.152.757-.19 1.136-.038 1.44-.038 2.879-.038 4.318 0 .909.038 1.856.114 2.765.114 1.363.947 2.31 2.31 2.537.682.114 1.402.152 2.121.152 1.326.038 2.652 0 4.015 0 .606 0 1.212-.038 1.818-.114a2.649 2.649 0 001.553-.606c.758-.606 1.023-1.401 1.06-2.31.076-1.136.076-2.348.114-3.598z" fill="#081420"/><path fill-rule="evenodd" clip-rule="evenodd" d="M12.22 7.991a4.073 4.073 0 01-4.09 4.09c-2.273 0-4.09-1.817-4.09-4.128 0-2.234 1.855-4.052 4.127-4.052 2.235 0 4.053 1.818 4.053 4.09zm-4.09 2.652c1.44 0 2.651-1.212 2.651-2.65 0-1.44-1.212-2.652-2.651-2.652a2.659 2.659 0 00-2.651 2.651c-.038 1.44 1.174 2.651 2.651 2.651z" fill="#081420"/><path d="M13.318 3.711c0 .53-.417.985-.947.985s-.985-.455-.947-.985c0-.53.417-.947.947-.947s.947.417.947.947z" fill="#081420"/></svg>