<svg width="17" height="16" fill="none" xmlns="http://www.w3.org/2000/svg"><path fill-rule="evenodd" clip-rule="evenodd" d="M16.08 9.324v5.887h-3.437v-5.5c0-1.375-.473-2.32-1.72-2.32-.945 0-1.503.644-1.76 1.246-.087.214-.13.515-.13.816v5.758H5.596s.043-9.324 0-10.27h3.437v1.461s0 .043-.043.043h.043v-.043c.473-.687 1.246-1.718 3.094-1.718 2.234 0 3.953 1.503 3.953 4.64zM2.072 0C.912 0 .14.773.14 1.762c0 .988.73 1.761 1.89 1.761h.043c1.203 0 1.934-.773 1.934-1.761C3.963.773 3.232 0 2.072 0zM.311 15.21h3.394V4.942H.311v10.27z" fill="#081420"/></svg>