<svg width="120" height="51" fill="none" xmlns="http://www.w3.org/2000/svg"><g filter="url(#filter0_d_1_5584)"><rect x="7.674" y="4.978" width="42.267" height="37.337" rx="6.97" fill="#6C5FBC"/><rect x="5.008" y="1.008" width="40.252" height="35.322" rx="5.962" fill="#DBD9EE" stroke="#6C5FBC" stroke-width="2.015"/><path d="M36.624 12.051l-22.902-.101m22.888 4.686l-5.094-.022c-2.106-.01-3.81-2.072-3.803-4.603.008-2.53 1.725-4.577 3.831-4.568l5.094.022M21.361 26.722l-6.654-.074c-.546-.002-1.002-.54-1.013-1.195l-.044-1.728c-.01-.684.45-1.263 1.02-1.26l6.58.073.111 4.184zm10.452 2.488l-9.405-.116c-.546-.002-1.003-.54-1.013-1.195l-.12-5.375 15.28.186.01.685c.077 3.246-2.063 5.857-4.752 5.815z" stroke="#6C5FBC" stroke-width="2.084" stroke-linecap="round" stroke-linejoin="round"/><path d="M73.308 21.646c0 .423-.028.804-.085 1.143h-8.576c.07.847.367 1.51.89 1.99.522.48 1.164.72 1.926.72 1.102 0 1.885-.472 2.351-1.418h3.198c-.34 1.13-.989 2.06-1.949 2.795-.96.72-2.138 1.08-3.536 1.08-1.13 0-2.146-.247-3.05-.741a5.455 5.455 0 01-2.096-2.139c-.494-.918-.74-1.976-.74-3.176 0-1.214.246-2.28.74-3.198a5.171 5.171 0 012.076-2.117c.889-.495 1.913-.742 3.07-.742 1.115 0 2.11.24 2.986.72a4.968 4.968 0 012.054 2.054c.494.876.741 1.885.741 3.029zm-3.07-.848c-.014-.762-.29-1.369-.826-1.82-.537-.466-1.193-.7-1.97-.7-.734 0-1.355.227-1.863.678-.494.438-.798 1.052-.91 1.843h5.569zm4.472 1.06c0-1.186.233-2.238.698-3.156.48-.918 1.123-1.623 1.927-2.117.82-.495 1.73-.742 2.732-.742.875 0 1.638.177 2.287.53.664.353 1.193.797 1.588 1.334v-1.673h2.986v11.731h-2.986V26.05c-.38.55-.91 1.01-1.588 1.377-.663.352-1.433.529-2.308.529a5.038 5.038 0 01-2.71-.762c-.805-.509-1.448-1.221-1.928-2.14-.465-.93-.698-1.997-.698-3.197zm9.232.042c0-.72-.14-1.334-.423-1.843a2.898 2.898 0 00-1.144-1.185 2.998 2.998 0 00-1.546-.424c-.55 0-1.058.134-1.524.402-.466.269-.847.664-1.144 1.186-.282.508-.423 1.115-.423 1.821s.14 1.327.423 1.864c.297.522.678.924 1.144 1.207.48.282.988.423 1.524.423a3.12 3.12 0 001.546-.402 3.08 3.08 0 001.144-1.186c.282-.522.423-1.143.423-1.863zm9.333-3.43v5.674c0 .396.092.685.275.869.198.169.523.254.975.254H95.9v2.498h-1.864c-2.498 0-3.748-1.214-3.748-3.642V18.47h-1.397v-2.435h1.397v-2.901h2.986v2.901H95.9v2.435h-2.626zm7.723-6.375v15.67h-2.965v-15.67h2.965zm14.152 3.939l-7.263 17.28h-3.155l2.541-5.845-4.701-11.435h3.324l3.028 8.195 3.071-8.195h3.155z" fill="#6C5FBC"/></g><defs><filter id="filter0_d_1_5584" x="0" y="0" width="119.15" height="50.315" filterUnits="userSpaceOnUse" color-interpolation-filters="sRGB"><feFlood flood-opacity="0" result="BackgroundImageFix"/><feColorMatrix in="SourceAlpha" values="0 0 0 0 0 0 0 0 0 0 0 0 0 0 0 0 0 0 127 0" result="hardAlpha"/><feOffset dy="4"/><feGaussianBlur stdDeviation="2"/><feComposite in2="hardAlpha" operator="out"/><feColorMatrix values="0 0 0 0 0 0 0 0 0 0 0 0 0 0 0 0 0 0 0.25 0"/><feBlend in2="BackgroundImageFix" result="effect1_dropShadow_1_5584"/><feBlend in="SourceGraphic" in2="effect1_dropShadow_1_5584" result="shape"/></filter></defs></svg>