<svg width="301" height="31" fill="none" xmlns="http://www.w3.org/2000/svg"><path opacity=".7" d="M254.544 26v-2.752h-5.856v-1.296l5.824-7.872h1.504v7.872h1.552v1.296h-1.552V26h-1.472zm-4.672-3.488l-.224-.56h4.896v-6.56l.464.128-5.136 6.992zM260.251 26l4.112-5.36.288.032c-.16.213-.336.384-.528.512a2.114 2.114 0 01-.64.256c-.224.053-.469.08-.736.08-.704 0-1.339-.16-1.904-.48a3.73 3.73 0 01-1.328-1.344c-.32-.576-.48-1.232-.48-1.968s.171-1.392.512-1.968a3.672 3.672 0 011.408-1.36c.597-.341 1.269-.512 2.016-.512.768 0 1.445.17 2.032.512.597.33 1.067.795 1.408 1.392.341.587.512 1.264.512 2.032 0 .416-.048.827-.144 1.232a5.48 5.48 0 01-.464 1.232 7.84 7.84 0 01-.816 1.296L262.139 26h-1.888zm2.72-5.856c.459 0 .864-.101 1.216-.304a2.27 2.27 0 00.848-.864 2.57 2.57 0 00.304-1.248c0-.48-.107-.901-.32-1.264a2.313 2.313 0 00-.832-.864 2.299 2.299 0 00-1.216-.32 2.27 2.27 0 00-1.2.32 2.435 2.435 0 00-.848.864c-.203.363-.304.784-.304 1.264 0 .459.101.875.304 1.248.203.363.48.65.832.864a2.45 2.45 0 001.216.304zm10.618 6.048c-.949 0-1.781-.256-2.496-.768-.704-.523-1.253-1.243-1.648-2.16-.394-.928-.592-2.005-.592-3.232 0-1.227.198-2.299.592-3.216.395-.928.944-1.648 1.648-2.16.704-.512 1.531-.768 2.48-.768.95 0 1.776.256 2.48.768s1.254 1.232 1.648 2.16c.406.917.608 1.99.608 3.216 0 1.227-.197 2.304-.592 3.232-.394.928-.949 1.648-1.664 2.16-.704.512-1.525.768-2.464.768zm0-1.456c.64 0 1.195-.192 1.664-.576.47-.395.832-.944 1.088-1.648.267-.704.4-1.53.4-2.48s-.133-1.776-.4-2.48c-.256-.704-.624-1.248-1.104-1.632-.469-.384-1.024-.576-1.664-.576-.64 0-1.194.192-1.664.576-.469.384-.837.928-1.104 1.632-.256.704-.384 1.53-.384 2.48 0 .939.128 1.76.384 2.464.267.704.635 1.253 1.104 1.648.48.395 1.04.592 1.68.592zm11.578 1.456c-.949 0-1.781-.256-2.496-.768-.704-.523-1.253-1.243-1.648-2.16-.394-.928-.592-2.005-.592-3.232 0-1.227.198-2.299.592-3.216.395-.928.944-1.648 1.648-2.16.704-.512 1.531-.768 2.48-.768.95 0 1.776.256 2.48.768s1.254 1.232 1.648 2.16c.406.917.608 1.99.608 3.216 0 1.227-.197 2.304-.592 3.232-.394.928-.949 1.648-1.664 2.16-.704.512-1.525.768-2.464.768zm0-1.456c.64 0 1.195-.192 1.664-.576.47-.395.832-.944 1.088-1.648.267-.704.4-1.53.4-2.48s-.133-1.776-.4-2.48c-.256-.704-.624-1.248-1.104-1.632-.469-.384-1.024-.576-1.664-.576-.64 0-1.194.192-1.664.576-.469.384-.837.928-1.104 1.632-.256.704-.384 1.53-.384 2.48 0 .939.128 1.76.384 2.464.267.704.635 1.253 1.104 1.648.48.395 1.04.592 1.68.592zM295.242 26v-3.312h-3.312v-1.392h3.312V18h1.392v3.296h3.296v1.392h-3.296V26h-1.392z" fill="#334155"/><path d="M32.33 10.701h12.443v2.317h-4.9v13.058h-2.685V13.018h-4.88l.021-2.317zm11.91 4.244h2.296v2.152h.04c.083-.307.226-.594.431-.881.205-.287.451-.554.759-.78.287-.245.615-.43.984-.573a2.864 2.864 0 011.086-.226c.287 0 .492.02.595.02.102.021.225.042.328.042v2.357c-.164-.04-.349-.061-.533-.082-.185-.02-.349-.04-.533-.04-.41 0-.8.081-1.169.245-.369.164-.676.41-.963.718a3.887 3.887 0 00-.656 1.189c-.164.471-.246 1.025-.246 1.64v5.289h-2.46l.04-11.07zm17.794 11.131h-2.42v-1.558h-.04c-.308.574-.759 1.005-1.353 1.353a3.571 3.571 0 01-1.825.513c-1.455 0-2.521-.349-3.177-1.087-.656-.717-.984-1.824-.984-3.28v-7.072h2.46v6.826c0 .984.184 1.681.574 2.07.369.41.902.616 1.578.616.513 0 .943-.082 1.292-.246.348-.164.635-.37.84-.636.226-.266.37-.594.472-.963.102-.37.143-.78.143-1.21v-6.457h2.46v11.131h-.02zm4.182-3.567c.082.718.348 1.21.82 1.517.471.287 1.045.43 1.701.43.226 0 .492-.02.78-.06.286-.042.573-.103.82-.206.266-.102.47-.246.635-.45a1.05 1.05 0 00.225-.76c-.02-.307-.123-.573-.348-.778-.226-.205-.492-.349-.82-.492a7.11 7.11 0 00-1.148-.308c-.43-.082-.861-.184-1.312-.287a14.174 14.174 0 01-1.333-.369c-.43-.143-.8-.328-1.148-.594a2.557 2.557 0 01-.8-.943c-.204-.39-.307-.84-.307-1.415 0-.615.144-1.107.451-1.517a3.27 3.27 0 011.128-.984c.45-.246.963-.43 1.517-.533a8.685 8.685 0 011.578-.143 7.05 7.05 0 011.64.184c.513.123 1.005.308 1.415.595.43.266.779.635 1.045 1.066.287.43.451.963.533 1.578h-2.562c-.123-.594-.39-.984-.8-1.189-.43-.205-.902-.307-1.455-.307-.164 0-.39.02-.615.04a3.623 3.623 0 00-.677.165c-.205.082-.39.205-.533.348a.82.82 0 00-.225.595c0 .307.102.533.307.717.205.185.472.328.82.472a7.11 7.11 0 001.148.307c.43.082.882.185 1.333.287.45.103.881.226 1.312.37.43.143.82.327 1.148.594.328.246.615.553.82.922.205.37.307.84.307 1.374 0 .656-.143 1.21-.45 1.68a3.829 3.829 0 01-1.17 1.128c-.47.287-1.024.492-1.598.636-.595.123-1.169.205-1.743.205a7.342 7.342 0 01-1.947-.246 4.96 4.96 0 01-1.558-.718 3.441 3.441 0 01-1.025-1.21c-.246-.47-.39-1.045-.41-1.721h2.48v.02h.02zm8.097-7.564h1.866v-3.362h2.46v3.341h2.214v1.825h-2.214v5.945c0 .266.02.471.04.676.021.185.083.349.144.472a.8.8 0 00.349.287c.164.061.369.102.656.102.164 0 .348 0 .512-.02.164-.02.349-.041.513-.082v1.906c-.267.041-.533.062-.8.082-.266.041-.512.041-.8.041-.655 0-1.168-.061-1.557-.184a2.239 2.239 0 01-.923-.533 1.906 1.906 0 01-.45-.882c-.083-.348-.124-.779-.144-1.23v-6.56h-1.866v-1.865.04zm8.262 0h2.316v1.517h.041c.349-.656.82-1.107 1.435-1.394a4.648 4.648 0 012.01-.43c.88 0 1.64.143 2.295.47a4.308 4.308 0 011.62 1.272c.43.533.758 1.168.963 1.886a8.39 8.39 0 01.328 2.296 8.42 8.42 0 01-.287 2.173c-.205.697-.492 1.332-.881 1.865-.39.533-.882.964-1.497 1.292-.615.328-1.312.492-2.132.492-.348 0-.717-.041-1.066-.103a4.537 4.537 0 01-1.025-.307 3.677 3.677 0 01-.902-.554 3.124 3.124 0 01-.697-.779h-.04v5.556h-2.46V14.945h-.021zm8.59 5.576c0-.492-.062-.984-.206-1.456a3.713 3.713 0 00-.594-1.25 3.28 3.28 0 00-.964-.882c-.39-.225-.84-.328-1.332-.328-1.025 0-1.804.349-2.337 1.066-.513.718-.78 1.681-.78 2.87 0 .574.062 1.087.206 1.558.143.472.328.882.615 1.23.266.349.594.615.984.82.39.205.82.308 1.332.308.574 0 1.025-.123 1.415-.349.39-.225.697-.533.963-.881.246-.37.43-.78.533-1.25a7.04 7.04 0 00.164-1.456zm4.325-9.82h2.46v2.317h-2.46V10.7zm0 4.244h2.46v11.131h-2.46V14.945zm4.653-4.244h2.46v15.375h-2.46V10.701zm9.963 15.683c-.881 0-1.681-.144-2.378-.451a5.398 5.398 0 01-1.763-1.21 5.272 5.272 0 01-1.086-1.865 7.288 7.288 0 01-.39-2.358c0-.84.123-1.62.39-2.337a5.46 5.46 0 011.086-1.865 4.921 4.921 0 011.763-1.21 6.224 6.224 0 012.378-.45c.882 0 1.681.143 2.378.45a5.102 5.102 0 011.763 1.21 5.26 5.26 0 011.087 1.865c.246.718.389 1.497.389 2.337 0 .861-.123 1.64-.389 2.358-.267.717-.615 1.332-1.087 1.865a4.912 4.912 0 01-1.763 1.21 6.147 6.147 0 01-2.378.45zm0-1.948c.533 0 1.025-.123 1.415-.348.41-.226.717-.533.984-.902.266-.37.451-.8.574-1.25a5.622 5.622 0 000-2.85 3.685 3.685 0 00-.574-1.25 3.125 3.125 0 00-.984-.882 2.894 2.894 0 00-1.415-.349c-.533 0-1.025.123-1.414.349-.41.225-.718.533-.984.881a3.666 3.666 0 00-.574 1.25 5.584 5.584 0 000 2.85c.123.472.307.882.574 1.25.266.37.594.677.984.903.41.246.881.348 1.414.348zm6.355-9.491h1.866v-3.362h2.46v3.341h2.214v1.825h-2.214v5.945c0 .266.02.471.041.676.02.185.082.349.143.472a.8.8 0 00.349.287c.164.061.369.102.656.102.164 0 .348 0 .512-.02.164-.02.349-.041.513-.082v1.906c-.267.041-.533.062-.8.082-.266.041-.512.041-.799.041-.656 0-1.169-.061-1.558-.184a2.24 2.24 0 01-.923-.533 1.91 1.91 0 01-.451-.882c-.082-.348-.123-.779-.143-1.23v-6.56h-1.866v-1.865.04z" fill="#000"/><path d="M29.459 10.701H18.203L14.739 0l-3.485 10.701L0 10.681l9.102 6.621-3.485 10.701 9.102-6.622 9.102 6.622-3.465-10.701 9.102-6.601z" fill="#00B67A"/><path d="M21.136 19.72l-.779-2.418-5.617 4.08 6.396-1.661z" fill="#005128"/><path d="M149.958 11.742c.321-.99 1.72-.99 2.041 0l1.148 3.532c.144.442.556.742 1.021.742h3.714c1.04 0 1.472 1.33.631 1.941l-3.005 2.183a1.075 1.075 0 00-.39 1.2l1.148 3.533c.321.989-.81 1.81-1.651 1.2l-3.005-2.183a1.074 1.074 0 00-1.262 0l-3.005 2.183c-.841.61-1.973-.211-1.651-1.2l1.147-3.533a1.072 1.072 0 00-.39-1.2l-3.005-2.183c-.841-.61-.408-1.941.631-1.941h3.715c.465 0 .877-.3 1.02-.742l1.148-3.532zm19.957 0c.321-.99 1.72-.99 2.041 0l1.148 3.532c.144.442.556.742 1.021.742h3.714c1.04 0 1.472 1.33.631 1.941l-3.005 2.183a1.075 1.075 0 00-.39 1.2l1.148 3.533c.321.989-.81 1.81-1.651 1.2l-3.005-2.183a1.074 1.074 0 00-1.262 0l-3.005 2.183c-.841.61-1.973-.211-1.651-1.2l1.147-3.533a1.073 1.073 0 00-.389-1.2l-3.006-2.183c-.841-.61-.408-1.941.631-1.941h3.715c.465 0 .877-.3 1.02-.742l1.148-3.532zm19.957 0c.321-.99 1.72-.99 2.042 0l1.147 3.532c.144.442.556.742 1.021.742h3.714c1.04 0 1.472 1.33.631 1.941l-3.005 2.183a1.075 1.075 0 00-.39 1.2l1.148 3.533c.321.989-.81 1.81-1.651 1.2l-3.005-2.183a1.074 1.074 0 00-1.262 0l-3.005 2.183c-.841.61-1.973-.211-1.651-1.2l1.147-3.533a1.073 1.073 0 00-.389-1.2l-3.006-2.183c-.841-.61-.408-1.941.631-1.941h3.715c.465 0 .877-.3 1.02-.742l1.148-3.532zm19.959 0c.321-.99 1.72-.99 2.042 0l1.147 3.532c.144.442.556.742 1.021.742h3.714c1.04 0 1.472 1.33.631 1.941l-3.005 2.183a1.075 1.075 0 00-.39 1.2l1.148 3.533c.321.989-.81 1.81-1.651 1.2l-3.005-2.183a1.074 1.074 0 00-1.262 0l-3.005 2.183c-.841.61-1.973-.211-1.651-1.2l1.147-3.533a1.073 1.073 0 00-.389-1.2l-3.006-2.183c-.841-.61-.408-1.941.631-1.941h3.715c.465 0 .877-.3 1.02-.742l1.148-3.532zm19.957 0c.321-.99 1.72-.99 2.042 0l1.147 3.532c.144.442.556.742 1.021.742h3.714c1.04 0 1.472 1.33.631 1.941l-3.005 2.183a1.075 1.075 0 00-.39 1.2l1.148 3.533c.321.989-.81 1.81-1.651 1.2l-3.005-2.183a1.074 1.074 0 00-1.262 0l-3.005 2.183c-.841.61-1.973-.211-1.651-1.2l1.147-3.533a1.073 1.073 0 00-.389-1.2l-3.005-2.183c-.842-.61-.409-1.941.63-1.941h3.715c.465 0 .877-.3 1.02-.742l1.148-3.532z" opacity=".8" fill="#F59E0B"/></svg>