<svg width="17" height="14" fill="none" xmlns="http://www.w3.org/2000/svg"><path fill-rule="evenodd" clip-rule="evenodd" d="M16.406 1.858c-.6.263-1.2.45-1.875.525.675-.412 1.2-1.05 1.425-1.8a6.902 6.902 0 01-2.063.788 3.315 3.315 0 00-2.4-1.05 3.266 3.266 0 00-3.264 3.263c0 .262.038.525.075.75C5.566 4.184 3.165 2.908 1.553.92c-.3.488-.45 1.05-.45 1.65a3.28 3.28 0 001.461 2.74c-.525 0-1.05-.15-1.5-.413v.038A3.3 3.3 0 003.69 8.161a3.197 3.197 0 01-.863.112c-.225 0-.413-.037-.6-.075.412 1.313 1.613 2.25 3.075 2.288a6.61 6.61 0 01-4.05 1.388c-.263 0-.526 0-.788-.038a9.18 9.18 0 005.026 1.463c6.039 0 9.302-4.988 9.302-9.302v-.412a7.017 7.017 0 001.613-1.726z" fill="#000"/></svg>