<svg width="26" height="26" fill="none" xmlns="http://www.w3.org/2000/svg"><path d="M13.351 2.775l-.031.073-3.037 7.047H7.3a5.14 5.14 0 00-2.01.408l1.832-4.376.042-.105.074-.168a.906.906 0 01.073-.178c1.372-3.172 2.921-3.895 6.041-2.701z" stroke="#936DFF" stroke-width="1.571" stroke-linecap="round" stroke-linejoin="round"/><path d="M18.995 10.104a4.984 4.984 0 00-1.477-.21h-7.235l3.037-7.046.031-.073c.157.052.304.126.46.188l2.315.974c1.288.534 2.188 1.09 2.733 1.76.104.125.188.24.261.376.095.147.168.293.21.45.042.095.073.189.094.273.283.88.115 1.958-.43 3.308z" stroke="#936DFF" stroke-width="1.571" stroke-linecap="round" stroke-linejoin="round"/><path d="M22.631 15.005v2.042c0 .21-.01.419-.02.628-.2 3.654-2.241 5.497-6.116 5.497H8.329a5.78 5.78 0 01-.743-.052c-3.33-.22-5.11-2-5.33-5.33a5.778 5.778 0 01-.052-.743v-2.042a5.124 5.124 0 013.1-4.701 5.185 5.185 0 012.01-.408h10.22a5.24 5.24 0 011.475.209 5.134 5.134 0 013.623 4.9z" stroke="#936DFF" stroke-width="1.571" stroke-linecap="round" stroke-linejoin="round"/><path d="M7.123 5.927l-1.832 4.377a5.124 5.124 0 00-3.1 4.7v-3.067a6.124 6.124 0 014.932-6.01zm15.504 6.009v3.068a5.108 5.108 0 00-3.623-4.89c.544-1.361.701-2.43.44-3.32a1.198 1.198 0 00-.095-.272 6.097 6.097 0 013.278 5.414z" stroke="#936DFF" stroke-width="1.571" stroke-linecap="round" stroke-linejoin="round"/></svg>