<svg width="120" height="51" viewBox="0 0 120 51" fill="none" xmlns="http://www.w3.org/2000/svg">
<g filter="url(#filter0_d_1_5584)">
<rect x="7.67383" y="4.97827" width="42.2674" height="37.3367" rx="6.96951" fill="#6C5FBC"/>
<rect x="5.0075" y="1.0075" width="40.2524" height="35.3217" rx="5.96201" fill="#DBD9EE" stroke="#6C5FBC" stroke-width="2.01499"/>
<path d="M36.624 12.051L13.7224 11.9498" stroke="#6C5FBC" stroke-width="2.08432" stroke-linecap="round" stroke-linejoin="round"/>
<path d="M36.6096 16.6363L31.5162 16.6138C29.4095 16.6044 27.7056 14.5424 27.7133 12.0114C27.7211 9.48047 29.4376 7.4335 31.5443 7.44281L36.6377 7.46533" stroke="#6C5FBC" stroke-width="2.08432" stroke-linecap="round" stroke-linejoin="round"/>
<path d="M21.3611 26.7221L14.7067 26.648C14.1614 26.6456 13.7046 26.1076 13.6942 25.4525L13.6499 23.7254C13.6396 23.0405 14.0999 22.462 14.6699 22.4645L21.25 22.5383L21.3611 26.7221Z" stroke="#6C5FBC" stroke-width="2.08432" stroke-linecap="round" stroke-linejoin="round"/>
<path d="M31.8134 29.2104L22.4076 29.0943C21.8624 29.0919 21.4055 28.5539 21.3951 27.8988L21.2752 22.5237L36.555 22.7103L36.5653 23.3952C36.6421 26.6412 34.5025 29.252 31.8134 29.2104Z" stroke="#6C5FBC" stroke-width="2.08432" stroke-linecap="round" stroke-linejoin="round"/>
<path d="M73.3081 21.6456C73.3081 22.0691 73.2798 22.4503 73.2234 22.7891H64.6472C64.7178 23.6361 65.0142 24.2996 65.5366 24.7796C66.0589 25.2596 66.7012 25.4996 67.4635 25.4996C68.5647 25.4996 69.3482 25.0266 69.8141 24.0808H73.0116C72.6728 25.2102 72.0234 26.1419 71.0634 26.876C70.1035 27.596 68.9247 27.956 67.5271 27.956C66.3977 27.956 65.3813 27.7089 64.4778 27.2148C63.5884 26.7066 62.8896 25.9937 62.3814 25.0761C61.8873 24.1584 61.6402 23.0996 61.6402 21.8997C61.6402 20.6856 61.8873 19.6198 62.3814 18.7021C62.8755 17.7845 63.5672 17.0787 64.4566 16.5846C65.346 16.0905 66.3695 15.8434 67.5271 15.8434C68.6423 15.8434 69.6376 16.0834 70.5129 16.5634C71.4022 17.0434 72.0869 17.7281 72.5669 18.6174C73.061 19.4927 73.3081 20.5021 73.3081 21.6456ZM70.2376 20.7985C70.2235 20.0362 69.9482 19.4292 69.4117 18.9774C68.8753 18.5116 68.2188 18.2786 67.4424 18.2786C66.7083 18.2786 66.0871 18.5045 65.5789 18.9563C65.0848 19.3939 64.7813 20.008 64.6683 20.7985H70.2376ZM74.7096 21.8573C74.7096 20.6715 74.9426 19.6198 75.4084 18.7021C75.8884 17.7845 76.5308 17.0787 77.3354 16.5846C78.1542 16.0905 79.0648 15.8434 80.0671 15.8434C80.9424 15.8434 81.7047 16.0199 82.3541 16.3728C83.0176 16.7257 83.547 17.1704 83.9423 17.7069V16.034H86.9281V27.7654H83.9423V26.0501C83.5611 26.6007 83.0317 27.0595 82.3541 27.4266C81.6906 27.7795 80.9212 27.956 80.0459 27.956C79.0577 27.956 78.1542 27.7019 77.3354 27.1936C76.5308 26.6854 75.8884 25.9725 75.4084 25.0549C74.9426 24.1231 74.7096 23.0573 74.7096 21.8573ZM83.9423 21.8997C83.9423 21.1797 83.8011 20.5656 83.5188 20.0574C83.2364 19.5351 82.8553 19.1398 82.3753 18.8715C81.8953 18.5892 81.38 18.448 80.8294 18.448C80.2789 18.448 79.7707 18.5821 79.3048 18.8504C78.8389 19.1186 78.4578 19.5139 78.1613 20.0362C77.8789 20.5444 77.7378 21.1515 77.7378 21.8573C77.7378 22.5632 77.8789 23.1844 78.1613 23.7208C78.4578 24.2431 78.8389 24.6455 79.3048 24.9278C79.7848 25.2102 80.293 25.3513 80.8294 25.3513C81.38 25.3513 81.8953 25.2172 82.3753 24.949C82.8553 24.6667 83.2364 24.2714 83.5188 23.7632C83.8011 23.2408 83.9423 22.6197 83.9423 21.8997ZM93.2752 18.4692V24.1443C93.2752 24.5396 93.3669 24.829 93.5505 25.0125C93.7481 25.1819 94.0728 25.2666 94.5246 25.2666H95.901V27.7654H94.0375C91.5388 27.7654 90.2894 26.5513 90.2894 24.1231V18.4692H88.8918V16.034H90.2894V13.1329H93.2752V16.034H95.901V18.4692H93.2752ZM100.998 12.0953V27.7654H98.0333V12.0953H100.998ZM115.15 16.034L107.887 33.3134H104.732L107.273 27.4689L102.572 16.034H105.896L108.924 24.229L111.995 16.034H115.15Z" fill="#6C5FBC"/>
</g>
<defs>
<filter id="filter0_d_1_5584" x="0" y="0" width="119.15" height="50.3149" filterUnits="userSpaceOnUse" color-interpolation-filters="sRGB">
<feFlood flood-opacity="0" result="BackgroundImageFix"/>
<feColorMatrix in="SourceAlpha" type="matrix" values="0 0 0 0 0 0 0 0 0 0 0 0 0 0 0 0 0 0 127 0" result="hardAlpha"/>
<feOffset dy="4"/>
<feGaussianBlur stdDeviation="2"/>
<feComposite in2="hardAlpha" operator="out"/>
<feColorMatrix type="matrix" values="0 0 0 0 0 0 0 0 0 0 0 0 0 0 0 0 0 0 0.25 0"/>
<feBlend mode="normal" in2="BackgroundImageFix" result="effect1_dropShadow_1_5584"/>
<feBlend mode="normal" in="SourceGraphic" in2="effect1_dropShadow_1_5584" result="shape"/>
</filter>
</defs>
</svg>
