<svg width="12" height="17" viewBox="0 0 12 17" fill="none" xmlns="http://www.w3.org/2000/svg">
<path d="M9.29278 0.809742C6.98468 0.422794 4.61582 0.422794 2.30771 0.809742C1.46448 0.951107 0.792954 1.59846 0.623882 2.43782C-0.150675 6.28312 -0.192937 10.24 0.499312 14.101L0.781152 15.6729C0.868056 16.1576 1.45896 16.3514 1.81598 16.0122L5.21793 12.7803C5.54425 12.4703 6.05624 12.4703 6.38257 12.7803L9.78452 16.0122C10.1415 16.3514 10.7324 16.1576 10.8193 15.6729L11.1012 14.101C11.7934 10.24 11.7512 6.28312 10.9766 2.43782C10.8075 1.59846 10.136 0.951107 9.29278 0.809742Z" fill="white"/>
</svg>
