<svg width="26" height="26" viewBox="0 0 26 26" fill="none" xmlns="http://www.w3.org/2000/svg">
<path d="M17.8973 22.2331H7.4267C4.28552 22.2331 2.19141 20.6625 2.19141 16.9978V9.6684C2.19141 6.00369 4.28552 4.43311 7.4267 4.43311H17.8973C21.0385 4.43311 23.1326 6.00369 23.1326 9.6684V16.9978C23.1326 20.6625 21.0385 22.2331 17.8973 22.2331Z" stroke="#22C55E" stroke-width="1.57059" stroke-miterlimit="10" stroke-linecap="round" stroke-linejoin="round"/>
<path d="M12.6607 16.4738C14.3955 16.4738 15.8019 15.0674 15.8019 13.3326C15.8019 11.5978 14.3955 10.1914 12.6607 10.1914C10.9259 10.1914 9.51953 11.5978 9.51953 13.3326C9.51953 15.0674 10.9259 16.4738 12.6607 16.4738Z" stroke="#22C55E" stroke-width="1.57059" stroke-miterlimit="10" stroke-linecap="round" stroke-linejoin="round"/>
<path d="M5.85352 10.7153V15.9506" stroke="#22C55E" stroke-width="1.57059" stroke-miterlimit="10" stroke-linecap="round" stroke-linejoin="round"/>
<path d="M19.4668 10.7153V15.9506" stroke="#22C55E" stroke-width="1.57059" stroke-miterlimit="10" stroke-linecap="round" stroke-linejoin="round"/>
</svg>
