<svg width="15" height="15" viewBox="0 0 15 15" fill="none" xmlns="http://www.w3.org/2000/svg">
<path fill-rule="evenodd" clip-rule="evenodd" d="M8.06191 0.985756L10.0173 5.14125L14.3883 5.80778C14.5015 5.82537 14.5953 5.90845 14.6306 6.02222C14.6658 6.136 14.6364 6.26083 14.5546 6.34442L11.3923 9.57831L12.1389 14.1456C12.1585 14.2633 12.1124 14.3825 12.0199 14.4529C11.9275 14.5233 11.8048 14.5326 11.7036 14.477L7.79377 12.321L3.88394 14.4776C3.7828 14.5335 3.66005 14.5243 3.56754 14.4539C3.47504 14.3836 3.42891 14.2643 3.44865 14.1465L4.19528 9.57831L1.03208 6.34442C0.950271 6.26083 0.920821 6.136 0.956068 6.02222C0.991315 5.90845 1.08517 5.82537 1.19833 5.80778L5.56937 5.14125L7.52563 0.985756C7.57541 0.878306 7.67956 0.810059 7.79377 0.810059C7.90798 0.810059 8.01213 0.878306 8.06191 0.985756Z" fill="#F59E0B"/>
</svg>
