<svg width="26" height="26" viewBox="0 0 26 26" fill="none" xmlns="http://www.w3.org/2000/svg">
<path d="M13.3514 2.77494L13.32 2.84823L10.2835 9.89494H7.29942C6.58742 9.89494 5.90683 10.0415 5.28906 10.3033L7.12142 5.92659L7.1633 5.82188L7.23659 5.65435C7.25753 5.59153 7.27847 5.52871 7.30989 5.47635C8.68153 2.30376 10.2312 1.58129 13.3514 2.77494Z" stroke="#936DFF" stroke-width="1.57059" stroke-linecap="round" stroke-linejoin="round"/>
<path d="M18.9947 10.1043C18.5236 9.95773 18.021 9.8949 17.5184 9.8949H10.2832L13.3197 2.8482L13.3511 2.7749C13.5081 2.82726 13.6547 2.90055 13.8118 2.96337L16.1258 3.93714C17.4137 4.47114 18.3141 5.02608 18.8586 5.6962C18.9633 5.82184 19.0471 5.93702 19.1204 6.07314C19.2146 6.21973 19.2879 6.36631 19.3298 6.52337C19.3717 6.61761 19.4031 6.71184 19.424 6.79561C19.7067 7.67514 19.5392 8.75361 18.9947 10.1043Z" stroke="#936DFF" stroke-width="1.57059" stroke-linecap="round" stroke-linejoin="round"/>
<path d="M22.6312 15.0052V17.0469C22.6312 17.2563 22.6208 17.4657 22.6103 17.6752C22.4114 21.3294 20.3696 23.1722 16.4955 23.1722H8.32842C8.07713 23.1722 7.82583 23.1513 7.58501 23.1199C4.25536 22.9 2.47536 21.12 2.25548 17.7903C2.22407 17.5495 2.20312 17.2982 2.20312 17.0469V15.0052C2.20312 12.9006 3.48054 11.0892 5.30242 10.3039C5.93065 10.0421 6.60077 9.89551 7.31277 9.89551H17.5321C18.0451 9.89551 18.5477 9.9688 19.0084 10.1049C21.0921 10.7436 22.6312 12.6912 22.6312 15.0052Z" stroke="#936DFF" stroke-width="1.57059" stroke-linecap="round" stroke-linejoin="round"/>
<path d="M7.12305 5.92676L5.2907 10.3035C3.46882 11.0888 2.19141 12.9002 2.19141 15.0048V11.9369C2.19141 8.96323 4.30647 6.4817 7.12305 5.92676Z" stroke="#936DFF" stroke-width="1.57059" stroke-linecap="round" stroke-linejoin="round"/>
<path d="M22.6267 11.9358V15.0036C22.6267 12.7001 21.098 10.7421 19.0039 10.1139C19.5484 8.7527 19.7054 7.6847 19.4437 6.7947C19.4227 6.70046 19.3913 6.60623 19.3494 6.52246C21.297 7.52764 22.6267 9.59034 22.6267 11.9358Z" stroke="#936DFF" stroke-width="1.57059" stroke-linecap="round" stroke-linejoin="round"/>
</svg>
